<svg width="100" height="39" viewBox="0 0 100 39" fill="none" xmlns="http://www.w3.org/2000/svg">
<path d="M50.1866 24.8487C49.4728 24.8487 48.8532 24.6716 48.328 24.3174C47.8027 23.9632 47.4121 23.5023 47.1563 22.9347C46.9004 22.3625 46.7724 21.7268 46.7724 21.0275C46.7724 20.4916 46.8487 19.9876 47.0014 19.5153C47.154 19.043 47.3695 18.6253 47.6478 18.262C47.9307 17.8987 48.2921 17.6126 48.732 17.4037C49.1765 17.1903 49.6703 17.0836 50.2135 17.0836C50.5682 17.0836 50.9206 17.1313 51.2707 17.2266C51.6254 17.322 51.888 17.4355 52.0586 17.5672L51.796 18.2007C51.3336 17.9373 50.7859 17.8056 50.1529 17.8056C49.3852 17.8056 48.7769 18.1008 48.328 18.6911C47.879 19.2769 47.6546 20.0557 47.6546 21.0275C47.6546 21.9584 47.8768 22.7122 48.3212 23.2889C48.7702 23.8611 49.3807 24.1471 50.1529 24.1471C50.6916 24.1471 51.2707 24.0109 51.8903 23.7385L52.0182 24.3447C51.8072 24.5036 51.5334 24.6262 51.1967 24.7125C50.86 24.8033 50.5233 24.8487 50.1866 24.8487Z" fill="#EB5757"/>
<path d="M56.4147 24.8487C55.7189 24.8487 55.1622 24.6716 54.7447 24.3174C54.3272 23.9632 54.1184 23.4569 54.1184 22.7985C54.1184 22.4079 54.2015 22.0696 54.3676 21.7835C54.5337 21.4929 54.7739 21.2591 55.0881 21.082C55.4069 20.9003 55.7683 20.7595 56.1723 20.6596C56.5808 20.5597 57.0545 20.4894 57.5932 20.4485C58.1678 20.4122 58.5943 20.3826 58.8726 20.3599V19.5289C58.8726 18.9568 58.7425 18.5276 58.4821 18.2416C58.2262 17.9509 57.8132 17.8056 57.243 17.8056C56.4619 17.8056 55.7323 17.9941 55.0545 18.371C55.0365 18.3256 54.9938 18.2279 54.9265 18.0781C54.8637 17.9237 54.8188 17.8056 54.7918 17.7239C55.0702 17.5422 55.4338 17.3901 55.8827 17.2675C56.3317 17.1449 56.7716 17.0836 57.2026 17.0836C58.087 17.0836 58.7222 17.2766 59.1083 17.6626C59.4944 18.044 59.6875 18.7229 59.6875 19.6992V24.6853H59.0343C59.0118 24.5808 58.9781 24.3742 58.9332 24.0654C58.8928 23.7566 58.8726 23.5977 58.8726 23.5886C58.2935 24.4287 57.4742 24.8487 56.4147 24.8487ZM56.4417 24.1744C57.0163 24.1744 57.5258 24.0041 57.9703 23.6635C58.4192 23.3184 58.7133 22.8416 58.8524 22.2331V20.9594C58.206 21.0138 57.8805 21.0411 57.876 21.0411C56.7806 21.141 56.0197 21.3226 55.5932 21.586C55.1667 21.8494 54.9534 22.2581 54.9534 22.8121C54.9534 23.2662 55.0881 23.6068 55.3575 23.8338C55.6313 24.0609 55.9927 24.1744 56.4417 24.1744Z" fill="#EB5757"/>
<path d="M62.5419 24.6853C62.5329 20.3032 62.5284 17.8147 62.5284 17.2198H63.2153L63.2691 18.6911C63.534 18.2461 63.8707 17.8828 64.2793 17.6013C64.6878 17.3197 65.1143 17.179 65.5587 17.179C65.7428 17.179 65.9403 17.1948 66.1513 17.2266L66.0907 17.9282C65.9291 17.901 65.7585 17.8874 65.5789 17.8874C64.9549 17.8874 64.4296 18.1371 64.0032 18.6366C63.5812 19.1316 63.3702 19.7197 63.3702 20.4008V24.6853H62.5419Z" fill="#EB5757"/>
<path d="M71.0327 24.8487C70.0136 24.8487 69.2033 24.5036 68.6017 23.8134C68.0046 23.1231 67.7061 22.1877 67.7061 21.007C67.7061 19.8672 67.9979 18.9341 68.5815 18.2075C69.1696 17.4809 69.9283 17.1063 70.8576 17.0836C71.724 17.0836 72.4199 17.3969 72.9451 18.0236C73.4704 18.6502 73.733 19.4903 73.733 20.5438C73.733 20.5847 73.7308 20.6687 73.7263 20.7959C73.7263 20.9185 73.7263 21.0048 73.7263 21.0547H68.5882C68.5972 22.0129 68.8262 22.7735 69.2751 23.3366C69.724 23.8951 70.3166 24.1744 71.0529 24.1744C71.5332 24.1744 71.9507 24.1176 72.3054 24.0041C72.6601 23.8906 73.0304 23.7294 73.4165 23.5205L73.5579 24.154C72.8127 24.6171 71.9709 24.8487 71.0327 24.8487ZM68.6219 20.3736H72.8239C72.8239 19.5426 72.6466 18.9068 72.2919 18.4663C71.9373 18.0213 71.4502 17.7988 70.8306 17.7988C70.2021 17.7988 69.6948 18.0349 69.3088 18.5072C68.9227 18.9795 68.6937 19.6016 68.6219 20.3736Z" fill="#EB5757"/>
<path d="M79.4157 24.8487C78.4146 24.8487 77.6177 24.4332 77.0251 23.6022L76.9376 24.6853H76.2373V14.3249L77.0655 14.25V16.7635C77.0655 17.5309 77.0588 18.0599 77.0453 18.3505C77.3192 17.9237 77.6671 17.6058 78.0891 17.3969C78.5156 17.188 78.9578 17.0836 79.4157 17.0836C80.4124 17.0836 81.189 17.4446 81.7457 18.1666C82.3069 18.8841 82.5874 19.8105 82.5874 20.9457C82.5874 21.7086 82.4707 22.3807 82.2373 22.9619C82.0083 23.5386 81.6514 23.9973 81.1666 24.3379C80.6817 24.6784 80.0981 24.8487 79.4157 24.8487ZM79.4561 24.1744C79.8691 24.1744 80.226 24.0858 80.5268 23.9087C80.8321 23.7271 81.0656 23.4819 81.2272 23.1731C81.3933 22.8598 81.5122 22.5237 81.5841 22.165C81.6604 21.8017 81.6985 21.4089 81.6985 20.9866C81.6985 20.6506 81.6761 20.335 81.6312 20.0398C81.5908 19.7401 81.5145 19.4495 81.4023 19.1679C81.2945 18.8818 81.1576 18.6389 80.9915 18.4391C80.8299 18.2393 80.6166 18.0781 80.3517 17.9555C80.0914 17.8329 79.7928 17.7716 79.4561 17.7716C78.6795 17.7716 78.0846 18.0554 77.6716 18.623C77.2631 19.1861 77.0611 19.9876 77.0655 21.0275C77.0655 21.5043 77.1082 21.9311 77.1935 22.308C77.2833 22.6804 77.4202 23.0096 77.6043 23.2957C77.7928 23.5772 78.042 23.7952 78.3517 23.9496C78.6615 24.0995 79.0296 24.1744 79.4561 24.1744Z" fill="#EB5757"/>
<path d="M85.0648 24.6853V17.2198H85.792L85.9065 18.371C86.1714 17.9714 86.526 17.658 86.9705 17.431C87.4194 17.1994 87.902 17.0836 88.4183 17.0836C89.2668 17.0836 89.8908 17.3197 90.2904 17.792C90.6899 18.2643 90.8897 19.0181 90.8897 20.0534V24.6853H90.0479V19.672C90.0255 19.009 89.8863 18.5322 89.6304 18.2416C89.3745 17.9509 88.9548 17.8056 88.3712 17.8056C87.7022 17.8056 87.1545 17.9759 86.7281 18.3165C86.3061 18.6571 86.0412 19.0975 85.9334 19.6379C85.9155 19.8513 85.9065 20.0739 85.9065 20.3054V24.6853H85.0648Z" fill="#EB5757"/>
<path d="M96.8283 24.8487C95.8272 24.8487 95.0303 24.4332 94.4377 23.6022L94.3502 24.6853H93.6498V14.3249L94.4781 14.25V16.7635C94.4781 17.5309 94.4714 18.0599 94.4579 18.3505C94.7317 17.9237 95.0797 17.6058 95.5017 17.3969C95.9282 17.188 96.3704 17.0836 96.8283 17.0836C97.8249 17.0836 98.6016 17.4446 99.1582 18.1666C99.7194 18.8841 100 19.8105 100 20.9457C100 21.7086 99.8833 22.3807 99.6498 22.9619C99.4209 23.5386 99.064 23.9973 98.5791 24.3379C98.0943 24.6784 97.5107 24.8487 96.8283 24.8487ZM96.8687 24.1744C97.2817 24.1744 97.6386 24.0858 97.9394 23.9087C98.2447 23.7271 98.4781 23.4819 98.6397 23.1731C98.8058 22.8598 98.9248 22.5237 98.9966 22.165C99.0729 21.8017 99.1111 21.4089 99.1111 20.9866C99.1111 20.6506 99.0887 20.335 99.0438 20.0398C99.0034 19.7401 98.927 19.4495 98.8148 19.1679C98.7071 18.8818 98.5701 18.6389 98.404 18.4391C98.2424 18.2393 98.0292 18.0781 97.7643 17.9555C97.5039 17.8329 97.2054 17.7716 96.8687 17.7716C96.092 17.7716 95.4972 18.0554 95.0842 18.623C94.6756 19.1861 94.4736 19.9876 94.4781 21.0275C94.4781 21.5043 94.5208 21.9311 94.606 22.308C94.6958 22.6804 94.8328 23.0096 95.0168 23.2957C95.2054 23.5772 95.4545 23.7952 95.7643 23.9496C96.0741 24.0995 96.4422 24.1744 96.8687 24.1744Z" fill="#EB5757"/>
<path fill-rule="evenodd" clip-rule="evenodd" d="M38.5563 19.5C38.5563 30.2696 29.9251 39 19.2781 39C8.63111 39 0 30.2696 0 19.5C0 8.73045 8.63111 0 19.2781 0C29.9251 0 38.5563 8.73045 38.5563 19.5ZM19.4058 12.4095C19.2908 12.3578 19.1595 12.3578 19.0445 12.4095L9.45838 16.719C9.29772 16.7913 9.19418 16.9524 9.19418 17.1303V23.9554H8.60101V17.1303C8.60101 16.7153 8.8426 16.3393 9.21747 16.1708L18.8036 11.8612C19.072 11.7406 19.3784 11.7406 19.6468 11.8612L29.2329 16.1708C29.6077 16.3393 29.8493 16.7153 29.8493 17.1303V23.9554H29.2561V17.1303C29.2561 16.9524 29.1526 16.7913 28.992 16.719L19.4058 12.4095ZM17.7398 20.6544C18.0292 20.9465 18.4977 20.9466 18.7872 20.6546L21.2301 18.1907C21.3468 18.073 21.5357 18.0731 21.6524 18.1908C21.7694 18.309 21.7694 18.5008 21.6524 18.6189L18.7872 21.5115C18.4977 21.8037 18.029 21.8037 17.7396 21.5115L16.7994 20.5623C16.6817 20.4435 16.682 20.2504 16.8001 20.132C16.9173 20.0145 17.1064 20.0149 17.2232 20.1328L17.7398 20.6544Z" fill="#EB5757"/>
</svg>
