<svg width="102" height="102" viewBox="0 0 102 102" fill="none" xmlns="http://www.w3.org/2000/svg">
<path d="M56.5391 65.7913C56.9297 65.2858 57.4903 65.0331 58.2209 65.0331C58.7172 65.0331 59.1284 65.1686 59.4547 65.4397C59.7809 65.7108 60.0107 66.0624 60.1439 66.4943C60.2818 66.9262 60.3507 67.4317 60.3507 68.0107C60.3507 68.438 60.3094 68.8263 60.2266 69.1755C60.1485 69.5247 60.0268 69.8395 59.8613 70.1198C59.7005 70.3955 59.4776 70.6115 59.1928 70.7677C58.9125 70.9194 58.5862 70.9952 58.214 70.9952C56.7114 70.9952 55.9601 69.998 55.9601 68.0038C55.9601 67.0296 56.1531 66.2921 56.5391 65.7913Z" fill="#EB5757"/>
<path d="M34.2164 71.0227C34.7632 71.0227 35.2434 70.8734 35.657 70.5747C36.0751 70.2715 36.3439 69.8648 36.4634 69.3547V68.0796C36.4404 68.0796 36.3003 68.0911 36.0429 68.1141C35.7902 68.137 35.6248 68.1508 35.5467 68.1554C34.5495 68.2427 33.8534 68.4059 33.4582 68.6448C33.0676 68.8837 32.8723 69.2674 32.8723 69.7959C32.8723 70.2002 32.9918 70.5058 33.2308 70.7126C33.4697 70.9194 33.7983 71.0227 34.2164 71.0227Z" fill="#EB5757"/>
<path d="M50.6536 65.6327C50.3182 65.2284 49.8564 65.0262 49.2682 65.0262C48.68 65.0262 48.1999 65.2352 47.8277 65.6534C47.4555 66.067 47.2372 66.6344 47.1729 67.3559H51.1637C51.1637 66.6069 50.9937 66.0325 50.6536 65.6327Z" fill="#EB5757"/>
<path d="M74.7753 65.7913C75.1659 65.2858 75.7265 65.0331 76.4571 65.0331C76.9534 65.0331 77.3646 65.1686 77.6909 65.4397C78.0171 65.7108 78.2469 66.0624 78.3801 66.4943C78.518 66.9262 78.5869 67.4317 78.5869 68.0107C78.5869 68.438 78.5455 68.8263 78.4628 69.1755C78.3847 69.5247 78.263 69.8395 78.0975 70.1198C77.9367 70.3955 77.7138 70.6115 77.429 70.7677C77.1487 70.9194 76.8224 70.9952 76.4502 70.9952C74.9476 70.9952 74.1963 69.998 74.1963 68.0038C74.1963 67.0296 74.3893 66.2921 74.7753 65.7913Z" fill="#EB5757"/>
<path fill-rule="evenodd" clip-rule="evenodd" d="M51 102C79.1665 102 102 79.1665 102 51C102 22.8335 79.1665 0 51 0C22.8335 0 0 22.8335 0 51C0 79.1665 22.8335 102 51 102ZM60.075 64.585C59.5879 64.245 59.0089 64.075 58.3381 64.075C57.8556 64.075 57.4007 64.1876 56.9733 64.4127C56.5506 64.6333 56.206 64.9343 55.9394 65.3157C55.9578 64.8745 55.967 64.3461 55.967 63.7304V61.2283L54.8159 61.2973V71.7947H55.8016L55.9188 70.747C56.1945 71.1192 56.5391 71.4133 56.9527 71.6293C57.3662 71.8453 57.8234 71.9532 58.3243 71.9532C59.0044 71.9532 59.5879 71.7832 60.075 71.4432C60.5667 71.0986 60.932 70.6299 61.1709 70.0371C61.4145 69.4443 61.5362 68.7574 61.5362 67.9762C61.5362 67.2226 61.4145 66.554 61.1709 65.9705C60.9274 65.3869 60.5621 64.9251 60.075 64.585ZM27.7106 71.9532C26.5986 71.9532 25.7278 71.5925 25.0983 70.8711C24.4734 70.1497 24.1609 69.2054 24.1609 68.0382C24.1655 66.8619 24.4849 65.9084 25.119 65.1778C25.7577 64.4426 26.6308 64.075 27.7382 64.075C28.1288 64.075 28.5056 64.1232 28.8686 64.2197C29.2362 64.3162 29.5257 64.4426 29.737 64.5988L29.42 65.4949C28.8823 65.2054 28.3149 65.0606 27.7175 65.0606C26.9869 65.0606 26.4079 65.3271 25.9806 65.8602C25.5578 66.3932 25.3464 67.1215 25.3464 68.0451C25.3464 68.9458 25.5555 69.6603 25.9737 70.1887C26.3964 70.7126 26.98 70.9745 27.7244 70.9745C28.3172 70.9745 28.9237 70.8137 29.544 70.492L29.6888 71.4087C29.1879 71.7717 28.5285 71.9532 27.7106 71.9532ZM36.7184 71.7947C36.6495 71.5006 36.5829 71.1836 36.5185 70.8435C36.1004 71.2617 35.7075 71.5512 35.3399 71.712C34.9723 71.8728 34.5404 71.9532 34.0441 71.9532C33.3364 71.9532 32.7667 71.7694 32.3347 71.4018C31.9074 71.0296 31.6937 70.4966 31.6937 69.8027C31.6937 69.0308 31.9855 68.4587 32.5691 68.0865C33.1572 67.7143 34.0027 67.4822 35.1055 67.3903C35.2572 67.3766 35.4846 67.3582 35.7879 67.3352C36.0958 67.3076 36.3255 67.2869 36.4772 67.2732V66.6046C36.4772 66.0715 36.3531 65.6764 36.105 65.4191C35.8568 65.1617 35.4663 65.0331 34.9332 65.0331C34.1888 65.0331 33.4375 65.2169 32.6793 65.5845C32.6564 65.5293 32.5966 65.3708 32.5001 65.1089C32.4036 64.8424 32.3531 64.7045 32.3485 64.6953C32.6839 64.5069 33.0814 64.3576 33.5409 64.2473C34.005 64.1324 34.476 64.075 34.9539 64.075C35.8959 64.075 36.5737 64.2818 36.9872 64.6953C37.4054 65.1043 37.6145 65.8027 37.6145 66.7907V71.7947H36.7184ZM44.4029 64.2059C44.2328 64.1784 44.0444 64.1646 43.8377 64.1646C43.3828 64.1646 42.9531 64.2956 42.5487 64.5575C42.1444 64.8194 41.8112 65.164 41.5493 65.5914L41.439 64.2335H40.481C40.481 64.6333 40.4833 67.1537 40.4879 71.7947H41.6389V67.5489C41.6389 66.8872 41.8388 66.3335 42.2386 65.8877C42.6429 65.4374 43.1668 65.2123 43.8101 65.2123C43.9663 65.2123 44.1501 65.2307 44.3615 65.2674L44.4029 64.2059ZM49.4957 71.9532C48.3974 71.9532 47.5313 71.604 46.8972 70.9056C46.2676 70.2071 45.9529 69.2513 45.9529 68.0382C45.9529 66.8665 46.2584 65.9176 46.8696 65.1916C47.4807 64.461 48.2849 64.0888 49.282 64.075C50.2194 64.075 50.9615 64.3966 51.5083 65.04C52.0597 65.6787 52.3354 66.5334 52.3354 67.604C52.3354 67.6591 52.3331 67.7602 52.3285 67.9073V68.2243H47.1384C47.1522 69.0836 47.3727 69.7545 47.8001 70.237C48.232 70.7149 48.811 70.9538 49.537 70.9538C50.3366 70.9538 51.1384 70.7424 51.9425 70.3197L52.1218 71.2502C51.3544 71.7189 50.479 71.9532 49.4957 71.9532ZM64.0099 71.7947V64.2335H64.9748L65.1196 65.3157C65.4183 64.9435 65.7905 64.6448 66.2362 64.4196C66.6865 64.1899 67.1713 64.075 67.6905 64.075C68.5636 64.075 69.2092 64.3208 69.6273 64.8125C70.0455 65.2996 70.2546 66.0509 70.2546 67.0664V71.7947H69.1035C69.1035 68.762 69.1012 67.1376 69.0966 66.9216C69.0782 66.2783 68.9473 65.8073 68.7037 65.5087C68.4648 65.21 68.0627 65.0606 67.4975 65.0606C66.9048 65.0606 66.4108 65.2031 66.0156 65.488C65.6204 65.7729 65.3631 66.1428 65.2436 66.5977C65.1977 66.9056 65.1747 67.2594 65.1747 67.6591V71.7947H64.0099ZM78.3112 64.585C77.8241 64.245 77.2451 64.075 76.5743 64.075C76.0918 64.075 75.6369 64.1876 75.2095 64.4127C74.7868 64.6333 74.4422 64.9343 74.1756 65.3157C74.194 64.8745 74.2032 64.3461 74.2032 63.7304V61.2283L73.0521 61.2973V71.7947H74.0378L74.155 70.747C74.4307 71.1192 74.7753 71.4133 75.1889 71.6293C75.6024 71.8453 76.0596 71.9532 76.5605 71.9532C77.2406 71.9532 77.8241 71.7832 78.3112 71.4432C78.8029 71.0986 79.1682 70.6299 79.4071 70.0371C79.6507 69.4443 79.7724 68.7574 79.7724 67.9762C79.7724 67.2226 79.6507 66.554 79.4071 65.9705C79.1636 65.3869 78.7983 64.9251 78.3112 64.585ZM51.9724 24.5222C51.9331 24.5047 51.8883 24.5047 51.8491 24.5222L25.2866 36.3277C25.2318 36.3521 25.1964 36.4064 25.1964 36.4664V55.0982H23.9821V36.4664C23.9821 35.9266 24.3001 35.4373 24.7934 35.2181L51.3559 23.4125C51.7091 23.2555 52.1123 23.2555 52.4655 23.4125L79.028 35.2181C79.5214 35.4373 79.8393 35.9266 79.8393 36.4664V55.0982H78.625V36.4664C78.625 36.4064 78.5897 36.3521 78.5349 36.3277L51.9724 24.5222ZM48.8305 47.3122C49.1266 47.6078 49.6062 47.6079 49.9025 47.3125L53.5699 43.6557L57.2374 39.9988C57.5337 39.7034 58.0132 39.7035 58.3094 39.9991L58.3546 40.0443C58.6517 40.3408 58.6517 40.8221 58.3546 41.1186L49.9025 49.5542C49.6062 49.8499 49.1265 49.8499 48.8302 49.5542L45.4687 46.1993C45.1709 45.9021 45.1717 45.4193 45.4706 45.1231L45.5198 45.0743C45.8163 44.7804 46.2946 44.7813 46.5901 45.0762L48.8305 47.3122Z" fill="#EB5757"/>
</svg>
