<svg width="182" height="70" viewBox="0 0 182 70" fill="none" xmlns="http://www.w3.org/2000/svg">
<path d="M91.3395 44.6003C90.0404 44.6003 88.9129 44.2824 87.9569 43.6467C87.001 43.0109 86.2901 42.1837 85.8244 41.1648C85.3587 40.1379 85.1258 38.9968 85.1258 37.7416C85.1258 36.7798 85.2647 35.8751 85.5425 35.0275C85.8203 34.1798 86.2125 33.43 86.7191 32.7779C87.2338 32.1259 87.8915 31.6124 88.6923 31.2375C89.5012 30.8544 90.3999 30.6629 91.3886 30.6629C92.034 30.6629 92.6754 30.7484 93.3128 30.9196C93.9582 31.0908 94.4362 31.2945 94.7467 31.5309L94.2687 32.6679C93.4271 32.1952 92.4303 31.9588 91.2783 31.9588C89.8811 31.9588 88.774 32.4886 87.9569 33.5482C87.1398 34.5996 86.7313 35.9974 86.7313 37.7416C86.7313 39.4125 87.1358 40.7655 87.9447 41.8006C88.7617 42.8275 89.8729 43.341 91.2783 43.341C92.2587 43.341 93.3128 43.0965 94.4403 42.6075L94.6732 43.6956C94.2891 43.9808 93.7907 44.2009 93.1779 44.3558C92.5651 44.5188 91.9523 44.6003 91.3395 44.6003Z" fill="#EB5757"/>
<path d="M102.675 44.6003C101.408 44.6003 100.395 44.2824 99.6353 43.6467C98.8755 43.0109 98.4955 42.1021 98.4955 40.9203C98.4955 40.2194 98.6467 39.6122 98.949 39.0987C99.2513 38.577 99.6884 38.1573 100.26 37.8394C100.84 37.5134 101.498 37.2607 102.234 37.0814C102.977 36.9021 103.839 36.7758 104.82 36.7024C105.865 36.6372 106.642 36.5842 107.148 36.5435V35.0519C107.148 34.025 106.911 33.2547 106.437 32.7412C105.972 32.2196 105.22 31.9588 104.182 31.9588C102.761 31.9588 101.433 32.297 100.199 32.9735C100.166 32.892 100.089 32.7168 99.9662 32.4478C99.8519 32.1707 99.7701 31.9588 99.7211 31.8121C100.228 31.4861 100.89 31.213 101.707 30.993C102.524 30.7729 103.324 30.6629 104.109 30.6629C105.718 30.6629 106.874 31.0093 107.577 31.7021C108.28 32.3867 108.631 33.6052 108.631 35.3576V44.3069H107.442C107.402 44.1194 107.34 43.7486 107.259 43.1943C107.185 42.6401 107.148 42.3548 107.148 42.3385C106.094 43.8464 104.603 44.6003 102.675 44.6003ZM102.724 43.3899C103.77 43.3899 104.697 43.0843 105.506 42.473C106.323 41.8536 106.858 40.9977 107.111 39.9056V37.6194C105.935 37.7172 105.343 37.7661 105.334 37.7661C103.341 37.9454 101.956 38.2714 101.18 38.7441C100.403 39.2169 100.015 39.9504 100.015 40.9448C100.015 41.7598 100.26 42.3711 100.751 42.7786C101.249 43.1862 101.907 43.3899 102.724 43.3899Z" fill="#EB5757"/>
<path d="M113.826 44.3069C113.81 36.4416 113.802 31.9751 113.802 30.9074H115.052L115.15 33.5482C115.632 32.7494 116.245 32.0974 116.988 31.592C117.732 31.0867 118.508 30.834 119.317 30.834C119.652 30.834 120.011 30.8626 120.395 30.9196L120.285 32.1789C119.991 32.13 119.68 32.1055 119.354 32.1055C118.218 32.1055 117.262 32.5538 116.486 33.4503C115.718 34.3388 115.334 35.3943 115.334 36.6168V44.3069H113.826Z" fill="#EB5757"/>
<path d="M129.279 44.6003C127.425 44.6003 125.95 43.9808 124.855 42.742C123.768 41.5031 123.225 39.8241 123.225 37.7049C123.225 35.6591 123.756 33.9842 124.818 32.6801C125.889 31.376 127.269 30.7036 128.961 30.6629C130.538 30.6629 131.804 31.2253 132.76 32.35C133.716 33.4748 134.194 34.9827 134.194 36.8736C134.194 36.9469 134.19 37.0977 134.182 37.3259C134.182 37.546 134.182 37.7009 134.182 37.7905H124.831C124.847 39.5103 125.264 40.8755 126.081 41.8862C126.898 42.8887 127.976 43.3899 129.316 43.3899C130.19 43.3899 130.95 43.2881 131.596 43.0843C132.241 42.8805 132.915 42.5912 133.618 42.2163L133.875 43.3533C132.519 44.1846 130.987 44.6003 129.279 44.6003ZM124.892 36.5679H132.54C132.54 35.0764 132.217 33.9353 131.571 33.1447C130.926 32.3459 130.039 31.9466 128.912 31.9466C127.768 31.9466 126.845 32.3704 126.142 33.2181C125.439 34.0657 125.023 35.1823 124.892 36.5679Z" fill="#EB5757"/>
<path d="M144.537 44.6003C142.715 44.6003 141.264 43.8545 140.186 42.363L140.026 44.3069H138.752V25.7114L140.259 25.5769V30.0882C140.259 31.4657 140.247 32.4152 140.223 32.9369C140.721 32.1707 141.354 31.6002 142.122 31.2253C142.898 30.8503 143.703 30.6629 144.537 30.6629C146.35 30.6629 147.764 31.3108 148.777 32.6068C149.798 33.8946 150.309 35.5573 150.309 37.5949C150.309 38.9642 150.097 40.1705 149.672 41.2137C149.255 42.2489 148.606 43.0721 147.723 43.6834C146.841 44.2946 145.779 44.6003 144.537 44.6003ZM144.61 43.3899C145.362 43.3899 146.011 43.231 146.559 42.9131C147.114 42.5871 147.539 42.147 147.833 41.5927C148.136 41.0303 148.352 40.4272 148.483 39.7833C148.622 39.1313 148.691 38.4263 148.691 37.6683C148.691 37.0651 148.651 36.4986 148.569 35.9689C148.495 35.4309 148.356 34.9093 148.152 34.404C147.956 33.8905 147.707 33.4544 147.404 33.0958C147.11 32.7372 146.722 32.4478 146.24 32.2278C145.766 32.0077 145.223 31.8977 144.61 31.8977C143.197 31.8977 142.114 32.4071 141.362 33.4259C140.619 34.4366 140.251 35.8751 140.259 37.7416C140.259 38.5974 140.337 39.3636 140.492 40.0401C140.656 40.7084 140.905 41.2993 141.24 41.8128C141.583 42.3181 142.036 42.7094 142.6 42.9865C143.164 43.2554 143.834 43.3899 144.61 43.3899Z" fill="#EB5757"/>
<path d="M154.818 44.3069V30.9074H156.141L156.35 32.9735C156.832 32.2563 157.477 31.6939 158.286 31.2864C159.103 30.8707 159.982 30.6629 160.921 30.6629C162.466 30.6629 163.601 31.0867 164.328 31.9343C165.056 32.782 165.419 34.135 165.419 35.9933V44.3069H163.887V35.3087C163.846 34.1187 163.593 33.2629 163.127 32.7412C162.662 32.2196 161.898 31.9588 160.836 31.9588C159.618 31.9588 158.621 32.2644 157.845 32.8757C157.077 33.487 156.595 34.2776 156.399 35.2475C156.366 35.6306 156.35 36.03 156.35 36.4457V44.3069H154.818Z" fill="#EB5757"/>
<path d="M176.227 44.6003C174.405 44.6003 172.955 43.8545 171.877 42.363L171.717 44.3069H170.443V25.7114L171.95 25.5769V30.0882C171.95 31.4657 171.938 32.4152 171.913 32.9369C172.412 32.1707 173.045 31.6002 173.813 31.2253C174.589 30.8503 175.394 30.6629 176.227 30.6629C178.041 30.6629 179.455 31.3108 180.468 32.6068C181.489 33.8946 182 35.5573 182 37.5949C182 38.9642 181.788 40.1705 181.363 41.2137C180.946 42.2489 180.296 43.0721 179.414 43.6834C178.532 44.2946 177.469 44.6003 176.227 44.6003ZM176.301 43.3899C177.053 43.3899 177.702 43.231 178.25 42.9131C178.805 42.5871 179.23 42.147 179.524 41.5927C179.827 41.0303 180.043 40.4272 180.174 39.7833C180.313 39.1313 180.382 38.4263 180.382 37.6683C180.382 37.0651 180.341 36.4986 180.26 35.9689C180.186 35.4309 180.047 34.9093 179.843 34.404C179.647 33.8905 179.398 33.4544 179.095 33.0958C178.801 32.7372 178.413 32.4478 177.931 32.2278C177.457 32.0077 176.914 31.8977 176.301 31.8977C174.887 31.8977 173.805 32.4071 173.053 33.4259C172.31 34.4366 171.942 35.8751 171.95 37.7416C171.95 38.5974 172.028 39.3636 172.183 40.0401C172.346 40.7084 172.596 41.2993 172.931 41.8128C173.274 42.3181 173.727 42.7094 174.291 42.9865C174.855 43.2554 175.525 43.3899 176.301 43.3899Z" fill="#EB5757"/>
<path fill-rule="evenodd" clip-rule="evenodd" d="M70.1724 35C70.1724 54.33 54.4638 70 35.0862 70C15.7086 70 0 54.33 0 35C0 15.67 15.7086 0 35.0862 0C54.4638 0 70.1724 15.67 70.1724 35ZM35.3186 22.2735C35.1093 22.1807 34.8703 22.1807 34.661 22.2735L17.2143 30.0085C16.9219 30.1382 16.7334 30.4274 16.7334 30.7466V42.9968H15.6538V30.7466C15.6538 30.0018 16.0935 29.3269 16.7758 29.0244L34.2225 21.2894C34.711 21.0728 35.2686 21.0728 35.7571 21.2894L53.2038 29.0244C53.8861 29.3269 54.3258 30.0018 54.3258 30.7466V42.9968H53.2462V30.7466C53.2462 30.4274 53.0578 30.1382 52.7654 30.0085L35.3186 22.2735ZM32.2865 37.072C32.8131 37.5962 33.6658 37.5965 34.1926 37.0724L38.6388 32.65C38.8512 32.4388 39.195 32.4388 39.4074 32.6502C39.6204 32.8623 39.6204 33.2065 39.4074 33.4186L34.1926 38.6103C33.6659 39.1348 32.8129 39.1348 32.2861 38.6103L30.5749 36.9067C30.3606 36.6934 30.3612 36.3469 30.5762 36.1344C30.7896 35.9235 31.1336 35.9241 31.3462 36.1357L32.2865 37.072Z" fill="#EB5757"/>
</svg>
