<svg width="25" height="24" viewBox="0 0 25 24" fill="none" xmlns="http://www.w3.org/2000/svg">
<path d="M12.1215 2C6.60746 2 2.12146 6.486 2.12146 12C2.12146 17.514 6.60746 22 12.1215 22C17.6355 22 22.1215 17.514 22.1215 12C22.1215 6.486 17.6355 2 12.1215 2ZM10.1225 16.413L7.11691 13.4139C6.72616 13.024 6.72537 12.3912 7.11515 12.0003C7.50517 11.6092 8.13847 11.6085 8.52939 11.9987L10.1205 13.587L14.7075 9C15.0979 8.60953 15.731 8.60953 16.1215 9C16.5119 9.39047 16.5119 10.0235 16.1215 10.414L10.1225 16.413Z" fill="#2FAB73"/>
</svg>
