<svg width="70" height="70" viewBox="0 0 70 70" fill="none" xmlns="http://www.w3.org/2000/svg">
<g filter="url(#filter0_d)">
<circle cx="34.7999" cy="21.7999" r="16.7999" fill="white"/>
</g>
<path d="M28.9504 13.8846C29.4486 13.8846 29.8387 14.0417 30.1221 14.3543C30.4056 14.667 30.5575 15.0614 30.578 15.5341C30.578 16.0009 30.4187 16.3946 30.098 16.7145C29.7773 17.0338 29.339 17.1937 28.7846 17.1937H28.7649C28.2236 17.1937 27.7948 17.0338 27.4756 16.7145C27.16 16.3946 27 16.0009 27 15.5341C27 15.0541 27.1739 14.6597 27.5245 14.3492C27.8751 14.0395 28.3514 13.8846 28.9504 13.8846ZM27.2097 18.5043H30.6306V28.1146H27.2097V18.5043ZM43 22.6045V28.1146H39.5798V22.9749C39.5798 22.3211 39.4454 21.7973 39.1781 21.3985C38.9122 21.0033 38.4673 20.8053 37.8391 20.8053C37.3606 20.8053 36.9764 20.9266 36.69 21.1706C36.4029 21.4131 36.1947 21.6812 36.0691 21.9756C36.0282 22.0822 36.0026 22.1998 35.9887 22.3306C35.9756 22.4591 35.9697 22.5987 35.9697 22.7455V28.1154H32.5284C32.543 26.4893 32.551 24.9976 32.551 23.6447V21.9361V20.3838C32.551 19.9112 32.5459 19.508 32.5379 19.1734C32.5335 18.8417 32.5284 18.6175 32.5284 18.5043H35.9697V19.8652L35.9507 19.9046H35.9697V19.8652C36.0764 19.6979 36.213 19.5233 36.3795 19.3399C36.5483 19.1573 36.7499 18.9864 36.9953 18.8286C37.2386 18.6723 37.5315 18.5437 37.8749 18.4392C38.2204 18.3362 38.6134 18.2851 39.0612 18.2851C39.6178 18.2851 40.1379 18.3698 40.623 18.54C41.1066 18.7103 41.5222 18.9769 41.8758 19.3407C42.2271 19.7023 42.5025 20.1522 42.7027 20.6899C42.9021 21.2261 43 21.8645 43 22.6045Z" fill="#EB5757"/>
<defs>
<filter id="filter0_d" x="0" y="0" width="69.5999" height="69.5999" filterUnits="userSpaceOnUse" color-interpolation-filters="sRGB">
<feFlood flood-opacity="0" result="BackgroundImageFix"/>
<feColorMatrix in="SourceAlpha" type="matrix" values="0 0 0 0 0 0 0 0 0 0 0 0 0 0 0 0 0 0 127 0"/>
<feOffset dy="13"/>
<feGaussianBlur stdDeviation="9"/>
<feColorMatrix type="matrix" values="0 0 0 0 0.0658854 0 0 0 0 0.0730469 0 0 0 0 0.1375 0 0 0 0.08 0"/>
<feBlend mode="normal" in2="BackgroundImageFix" result="effect1_dropShadow"/>
<feBlend mode="normal" in="SourceGraphic" in2="effect1_dropShadow" result="shape"/>
</filter>
</defs>
</svg>
