<svg width="258" height="270" viewBox="0 0 258 270" fill="none" xmlns="http://www.w3.org/2000/svg">
<path d="M122.865 260.753L120.955 259.997L122.707 257.05L119.638 256.777L119.954 254.899L123.045 255.665L122.308 252.474L124.294 252.209L124.421 255.482L127.242 253.961L128.015 255.702L125.102 256.729C125.137 256.766 125.54 257.153 126.312 257.889C127.091 258.624 127.517 259.031 127.593 259.11C127.561 259.138 127.29 259.343 126.779 259.724C126.275 260.105 126.003 260.31 125.966 260.338L124.004 257.736L122.865 260.753ZM135.332 264.07L135.028 262.195L138.451 257.091C138.88 256.49 139.177 255.951 139.344 255.473C139.515 254.989 139.568 254.497 139.501 253.998C139.427 253.446 139.189 253.032 138.785 252.755C138.381 252.472 137.885 252.37 137.299 252.448C136.759 252.52 136.238 252.693 135.737 252.967C135.24 253.234 134.844 253.542 134.548 253.889L133.664 252.251C134.432 251.368 135.606 250.821 137.186 250.61C138.441 250.442 139.491 250.624 140.336 251.155C141.186 251.68 141.689 252.517 141.842 253.667C141.951 254.48 141.837 255.285 141.5 256.081C141.169 256.876 140.68 257.712 140.035 258.591L137.568 262.024L142.716 261.336L142.789 263.073L135.332 264.07ZM148.023 262.56C147.274 262.66 146.555 262.658 145.868 262.555C145.185 262.445 144.63 262.251 144.202 261.971L144.61 260.241C144.965 260.465 145.436 260.627 146.022 260.726C146.608 260.819 147.197 260.826 147.79 260.747C148.457 260.657 148.971 260.405 149.329 259.991C149.693 259.576 149.837 259.078 149.759 258.497C149.711 258.137 149.611 257.834 149.46 257.588C149.315 257.342 149.139 257.152 148.932 257.02C148.725 256.888 148.459 256.797 148.133 256.746C147.812 256.688 147.486 256.664 147.156 256.672C146.826 256.681 146.432 256.713 145.972 256.769C145.955 256.771 145.87 256.782 145.719 256.802C145.568 256.817 145.483 256.825 145.466 256.827L145.23 255.068L145.718 255.003C146.224 254.935 146.653 254.851 147.006 254.751C147.365 254.649 147.69 254.514 147.98 254.346C148.277 254.176 148.487 253.956 148.61 253.685C148.74 253.413 148.78 253.095 148.731 252.729C148.665 252.235 148.423 251.839 148.004 251.54C147.586 251.241 147.04 251.137 146.366 251.227C145.275 251.373 144.338 251.776 143.558 252.436L142.709 250.865C143.679 250.073 144.89 249.58 146.342 249.386C147.556 249.224 148.589 249.411 149.441 249.947C150.299 250.483 150.794 251.25 150.928 252.249C151.021 252.946 150.92 253.565 150.626 254.107C150.337 254.642 149.868 255.069 149.219 255.386C150.017 255.433 150.669 255.727 151.172 256.269C151.682 256.809 151.991 257.486 152.1 258.299C152.203 259.072 152.086 259.767 151.749 260.386C151.411 260.998 150.921 261.487 150.278 261.85C149.634 262.208 148.883 262.445 148.023 262.56ZM165.853 259.228C165.175 259.951 164.215 260.396 162.972 260.562C161.729 260.728 160.686 260.551 159.842 260.031C159.004 259.511 158.505 258.649 158.344 257.447L157.53 251.358L159.821 251.052L160.623 257.054C160.719 257.768 160.936 258.265 161.275 258.545C161.62 258.824 162.117 258.92 162.768 258.833C163.407 258.748 163.85 258.529 164.099 258.177C164.352 257.818 164.431 257.278 164.335 256.558L163.532 250.556L165.815 250.25L166.629 256.34C166.789 257.536 166.53 258.499 165.853 259.228ZM169.185 259.545L167.906 249.971L169.744 249.725L170.158 250.902C171.005 249.808 172.024 249.181 173.214 249.022C174.329 248.873 175.206 249.084 175.844 249.655C176.487 250.219 176.89 251.111 177.053 252.331L177.862 258.385L175.571 258.692L174.799 252.916C174.69 252.144 174.488 251.583 174.192 251.232C173.897 250.882 173.433 250.748 172.8 250.833C172.307 250.899 171.871 251.087 171.492 251.398C171.119 251.702 170.865 252.058 170.731 252.466C170.681 252.934 170.719 253.638 170.845 254.579L171.468 259.24L169.185 259.545ZM180.162 258.078L178.882 248.504L181.165 248.199L182.444 257.773L180.162 258.078ZM178.696 247.11L178.435 245.159L180.726 244.852L180.987 246.804L178.696 247.11ZM188.673 257.073C188.023 257.16 187.469 257.157 187.014 257.065C186.563 256.965 186.194 256.766 185.905 256.468C185.617 256.169 185.391 255.804 185.227 255.37C185.067 254.931 184.943 254.38 184.855 253.718L184.251 249.196L182.683 249.406L182.604 248.157L184.222 247.79L184.607 245.096L186 244.901L186.348 247.506L188.726 247.188L188.911 248.573L186.533 248.891L187.143 253.456C187.24 254.182 187.414 254.685 187.664 254.965C187.914 255.245 188.321 255.347 188.884 255.272C189.216 255.227 189.566 255.151 189.936 255.042L190.216 256.672C190.204 256.674 190.133 256.698 190.004 256.745C189.879 256.785 189.757 256.822 189.637 256.856C189.524 256.895 189.376 256.935 189.192 256.977C189.009 257.02 188.836 257.052 188.673 257.073ZM194.916 256.283C193.505 256.472 192.343 256.382 191.431 256.013L191.437 254.265C191.848 254.423 192.361 254.547 192.976 254.636C193.59 254.72 194.141 254.729 194.629 254.663C195.134 254.596 195.514 254.451 195.768 254.227C196.027 253.998 196.135 253.7 196.092 253.333C196.047 253.002 195.879 252.758 195.586 252.602C195.299 252.446 194.765 252.275 193.983 252.09C193.715 252.031 193.542 251.992 193.462 251.973C192.534 251.748 191.847 251.453 191.402 251.087C190.956 250.715 190.685 250.169 190.589 249.449C190.473 248.577 190.697 247.868 191.262 247.319C191.833 246.77 192.682 246.42 193.809 246.269C195.028 246.106 196.13 246.193 197.115 246.528L196.76 248.18C195.791 247.878 194.894 247.782 194.07 247.893C193.611 247.954 193.261 248.081 193.021 248.272C192.786 248.457 192.689 248.707 192.731 249.02C192.77 249.317 192.926 249.532 193.199 249.667C193.47 249.797 193.987 249.946 194.748 250.116C194.772 250.119 194.851 250.135 194.985 250.164C195.119 250.194 195.223 250.218 195.297 250.238C196.216 250.44 196.912 250.738 197.384 251.13C197.856 251.516 198.139 252.066 198.235 252.781C198.357 253.74 198.131 254.524 197.556 255.132C196.981 255.741 196.101 256.125 194.916 256.283ZM208.518 254.421C207.862 254.509 207.306 254.506 206.85 254.413C206.399 254.314 206.027 254.113 205.732 253.809C205.437 253.506 205.209 253.128 205.048 252.677C204.888 252.225 204.761 251.654 204.669 250.963L203.422 241.633L205.684 241.18L206.945 250.614C207.06 251.474 207.24 252.044 207.484 252.325C207.728 252.599 208.143 252.698 208.729 252.619C209.02 252.58 209.384 252.499 209.823 252.376L210.102 253.996C210.096 253.997 210.025 254.021 209.89 254.069C209.76 254.116 209.633 254.157 209.507 254.191C209.388 254.231 209.234 254.272 209.045 254.315C208.856 254.364 208.681 254.399 208.518 254.421ZM215.642 253.522C214.103 253.728 212.845 253.446 211.868 252.679C210.895 251.904 210.304 250.736 210.096 249.173C209.892 247.652 210.134 246.387 210.821 245.379C211.508 244.371 212.548 243.771 213.941 243.579C215.259 243.402 216.337 243.678 217.173 244.406C218.015 245.133 218.527 246.179 218.709 247.543C218.723 247.642 218.741 247.802 218.765 248.024C218.794 248.244 218.816 248.407 218.83 248.511L212.462 249.363C212.605 250.254 212.941 250.915 213.472 251.347C214.007 251.772 214.685 251.93 215.504 251.82C216.549 251.68 217.517 251.273 218.408 250.598L218.947 252.176C218.068 252.896 216.967 253.345 215.642 253.522ZM212.313 247.919L216.495 247.361C216.391 246.582 216.134 246.008 215.724 245.637C215.313 245.266 214.795 245.123 214.167 245.206C213.581 245.285 213.111 245.555 212.759 246.015C212.413 246.476 212.264 247.11 212.313 247.919ZM221.89 252.501L220.813 244.442L219.297 244.645L219.266 243.284L220.611 242.927L220.54 242.395C220.462 241.814 220.448 241.311 220.497 240.885C220.553 240.457 220.683 240.082 220.888 239.759C221.092 239.431 221.388 239.169 221.776 238.976C222.169 238.775 222.665 238.635 223.263 238.555C223.844 238.478 224.443 238.454 225.062 238.483L225.089 240.209C224.604 240.209 224.225 240.227 223.952 240.263C223.464 240.328 223.132 240.494 222.955 240.76C222.782 241.019 222.733 241.422 222.806 241.968L222.893 242.621L225.141 242.321L225.343 243.837L223.096 244.137L224.173 252.196L221.89 252.501ZM231.743 251.317C231.093 251.404 230.54 251.401 230.084 251.308C229.633 251.209 229.264 251.01 228.975 250.711C228.687 250.413 228.461 250.047 228.297 249.614C228.137 249.174 228.014 248.623 227.925 247.961L227.321 243.44L225.753 243.649L225.674 242.4L227.292 242.033L227.677 239.34L229.07 239.145L229.418 241.749L231.796 241.432L231.981 242.817L229.603 243.135L230.213 247.699C230.31 248.425 230.484 248.928 230.734 249.208C230.984 249.488 231.391 249.59 231.955 249.515C232.286 249.471 232.636 249.394 233.006 249.286L233.286 250.915C233.274 250.917 233.203 250.941 233.074 250.988C232.949 251.028 232.827 251.065 232.707 251.099C232.594 251.138 232.446 251.178 232.262 251.221C232.079 251.263 231.906 251.295 231.743 251.317Z" fill="#4F5665"/>
<rect y="31.1792" width="229" height="225" rx="10" transform="rotate(-7.82535 0 31.1792)" fill="#EB5757"/>
<path d="M59.786 100.321C55.3279 100.933 51.7935 100.291 49.1828 98.3948C46.57 96.4828 44.986 93.5067 44.4308 89.4665L41.4375 67.6869L47.7531 66.8189L50.673 88.0645C51.0623 90.8973 51.9191 92.8851 53.2432 94.0279C54.5829 95.1686 56.5685 95.5582 59.2 95.1965C61.7851 94.8412 63.5688 93.9337 64.551 92.4738C65.5312 90.9985 65.8266 88.8445 65.4372 86.0117L62.5206 64.7894L68.813 63.9246L71.8126 85.7507C72.3636 89.7598 71.6159 93.0406 69.5693 95.5931C67.5207 98.13 64.2595 99.7059 59.786 100.321ZM90.4876 100.62L89.8285 96.1682C85.8748 96.6642 82.1693 96.2114 78.7119 94.8097L79.5583 89.607C82.8551 90.873 86.0578 91.3397 89.1665 91.0071L87.7815 80.93C85.8495 80.6435 84.5404 80.4133 83.8541 80.2395C79.0664 79.2572 76.3704 76.568 75.7663 72.1718C75.3727 69.3081 76.0218 66.9162 77.7136 64.9961C79.4055 63.076 81.8541 61.7853 85.0595 61.124L84.5681 57.5482L86.8436 57.2355L87.3286 60.7648C91.0586 60.3626 94.4175 60.7605 97.4053 61.9586L96.1332 66.8177C93.1746 65.9468 90.4737 65.6319 88.0307 65.873L89.2848 74.9982C89.415 75.0276 89.6093 75.064 89.8676 75.1074C90.1259 75.1507 90.4085 75.1986 90.7154 75.2511C91.0377 75.3014 91.2552 75.3346 91.3678 75.3507C94.6196 75.9447 97.0153 76.9087 98.5551 78.2428C100.11 79.5747 101.074 81.5951 101.446 84.304C101.848 87.2296 101.216 89.6824 99.5477 91.6623C97.8798 93.6422 95.4098 95.0068 92.1376 95.7562L92.7631 100.307L90.4876 100.62ZM86.904 74.5447L85.768 66.2786C84.4756 66.6297 83.5346 67.1849 82.945 67.9441C82.3554 68.7033 82.1168 69.7219 82.2294 70.9997C82.4889 72.8882 83.5945 73.9901 85.5463 74.3054C85.7736 74.353 86.2262 74.4328 86.904 74.5447ZM91.4228 90.5551C94.2227 89.6971 95.4333 87.8905 95.0546 85.1351C94.7823 83.1537 93.3912 81.9255 90.8813 81.4503C90.8306 81.4257 90.7014 81.404 90.4938 81.3852C90.2995 81.3489 90.1859 81.325 90.1528 81.3138L91.4228 90.5551ZM119.137 91.667L118.308 86.6708L127.387 73.0265C128.522 71.4194 129.31 69.9784 129.75 68.7035C130.203 67.411 130.338 66.0992 130.155 64.7679C129.953 63.2974 129.313 62.1946 128.234 61.4597C127.153 60.7092 125.831 60.4415 124.267 60.6563C122.828 60.8542 121.441 61.3208 120.107 62.0562C118.786 62.7739 117.732 63.597 116.945 64.5253L114.571 60.1672C116.612 57.8048 119.738 56.3343 123.949 55.7556C127.292 55.2961 130.094 55.7706 132.353 57.1792C134.627 58.5702 135.974 60.7981 136.395 63.8631C136.693 66.0302 136.396 68.1765 135.505 70.3019C134.63 72.4253 133.337 74.6613 131.625 77.01L125.079 86.1898L138.802 84.3038L139.013 88.9355L119.137 91.667ZM147.279 87.7994L155.744 72.9618C154.755 73.4604 153.859 73.765 153.054 73.8756C149.726 74.333 146.872 73.708 144.492 72.0004C142.126 70.2753 140.724 67.8183 140.285 64.6296C139.83 61.3169 140.612 58.5125 142.631 56.2163C144.665 53.9179 147.516 52.5167 151.185 52.0125C154.977 51.4912 158.19 52.0906 160.824 53.8105C163.456 55.515 165.003 58.0545 165.467 61.429C165.735 63.3794 165.607 65.2029 165.083 66.8994C164.559 68.5959 163.713 70.526 162.543 72.6898L154.686 86.7815L147.279 87.7994ZM153.767 69.4246C155.919 69.1289 157.423 68.3149 158.281 66.9825C159.155 65.6481 159.452 63.9669 159.173 61.9391C158.912 60.0351 158.17 58.5993 156.949 57.6316C155.728 56.6638 154.118 56.3172 152.122 56.5916C150.063 56.8746 148.525 57.6773 147.508 59C146.507 60.3205 146.136 61.925 146.395 63.8135C146.672 65.8259 147.432 67.338 148.675 68.3501C149.933 69.36 151.631 69.7182 153.767 69.4246ZM175.513 83.919L183.978 69.0815C182.99 69.58 182.093 69.8846 181.289 69.9952C177.96 70.4526 175.107 69.8276 172.727 68.12C170.361 66.3949 168.958 63.9379 168.52 60.7492C168.065 57.4366 168.847 54.6321 170.865 52.3359C172.899 50.0375 175.751 48.6363 179.419 48.1321C183.212 47.6109 186.425 48.2102 189.059 49.9301C191.69 51.6346 193.238 54.1741 193.702 57.5486C193.97 59.499 193.842 61.3225 193.318 63.019C192.794 64.7155 191.947 66.6456 190.778 68.8094L182.92 82.9011L175.513 83.919ZM182.002 65.5442C184.153 65.2485 185.658 64.4345 186.516 63.1021C187.389 61.7677 187.686 60.0865 187.408 58.0587C187.146 56.1548 186.405 54.7189 185.183 53.7512C183.962 52.7834 182.353 52.4368 180.356 52.7112C178.297 52.9942 176.76 53.797 175.743 55.1196C174.741 56.4401 174.37 58.0446 174.63 59.9331C174.907 61.9455 175.666 63.4577 176.909 64.4697C178.168 65.4796 179.865 65.8378 182.002 65.5442ZM48.6597 133.654L46.6089 118.731L51.5662 118.05C52.7378 117.889 53.761 117.903 54.6359 118.094C55.5098 118.277 56.2338 118.674 56.8077 119.286C57.3883 119.896 57.749 120.712 57.8895 121.735C57.9872 122.446 57.9828 123.092 57.8763 123.672C57.7688 124.246 57.5363 124.788 57.1788 125.3C56.8204 125.805 56.2753 126.231 55.5435 126.58C54.8185 126.928 53.9176 127.176 52.8408 127.324C51.9198 127.451 51.1677 127.527 50.5846 127.552L51.372 133.281L48.6597 133.654ZM52.2726 125.374C52.8347 125.297 53.3148 125.175 53.7131 125.01C54.1181 124.844 54.424 124.661 54.631 124.46C54.8448 124.258 55.0022 124.022 55.1032 123.753C55.211 123.483 55.2694 123.23 55.2783 122.994C55.2932 122.751 55.2806 122.483 55.2406 122.192C55.1279 121.373 54.7782 120.786 54.1913 120.432C53.6044 120.078 52.8302 119.967 51.8685 120.099L49.6032 120.41L50.3194 125.622C50.4025 125.624 51.0536 125.541 52.2726 125.374ZM61.3171 131.914L59.2663 116.992L64.7823 116.233C65.534 116.13 66.1888 116.075 66.7467 116.067C67.3113 116.058 67.8534 116.112 68.3729 116.226C68.8982 116.334 69.3342 116.519 69.6808 116.782C70.0342 117.043 70.333 117.41 70.577 117.88C70.8269 118.342 70.9979 118.909 71.09 119.579C71.3618 121.557 70.6432 122.98 68.9341 123.85C69.3566 124.213 69.9155 124.916 70.6109 125.959L73.4564 130.246L70.4496 130.659L68.1778 127.007C67.3291 125.702 66.8092 124.932 66.6181 124.696C66.502 124.705 66.1189 124.754 65.4688 124.844L63.16 125.14L64.0396 131.54L61.3171 131.914ZM65.9266 122.752C66.983 122.607 67.7159 122.316 68.1253 121.881C68.5337 121.438 68.6806 120.8 68.5661 119.967C68.4656 119.236 68.158 118.73 67.6432 118.449C67.1285 118.167 66.3903 118.093 65.4286 118.225L62.2693 118.659L62.8878 123.159C62.9894 123.145 63.4944 123.079 64.4028 122.962C65.3103 122.837 65.8182 122.767 65.9266 122.752ZM78.4281 126.054C79.2956 126.894 80.4507 127.215 81.8932 127.016C83.3356 126.818 84.3584 126.201 84.9613 125.166C85.5701 124.124 85.7568 122.745 85.5213 121.032C85.2831 119.298 84.7292 118.005 83.8598 117.151C82.9972 116.297 81.848 115.968 80.4123 116.166C78.9698 116.364 77.9421 116.995 77.3293 118.059C76.7224 119.116 76.5376 120.507 76.7749 122.234C77.0095 123.941 77.5605 125.214 78.4281 126.054ZM82.1915 129.263C79.9499 129.571 78.0859 129.137 76.5995 127.961C75.1189 126.778 74.2143 124.991 73.8858 122.6C73.5553 120.196 73.9477 118.231 75.0627 116.704C76.1778 115.178 77.8561 114.261 80.0978 113.953C82.3394 113.645 84.2 114.079 85.6797 115.256C87.1584 116.425 88.063 118.212 88.3934 120.617C88.7201 122.994 88.3268 124.952 87.2136 126.492C86.1004 128.032 84.4264 128.956 82.1915 129.263ZM92.026 127.694L89.9807 112.812L93.2314 112.365L99.2087 122.494L102.262 111.124L105.472 110.683L107.518 125.565L104.978 125.914L103.967 118.559L103.469 114.332L103.247 115.501L100.734 125.462L98.3777 125.786L93.3456 116.81L92.8161 115.744L93.4995 120.039L94.5047 127.353L92.026 127.694ZM113.657 121.212C114.525 122.052 115.68 122.373 117.123 122.175C118.565 121.976 119.588 121.36 120.191 120.325C120.8 119.282 120.986 117.904 120.751 116.19C120.512 114.457 119.959 113.163 119.089 112.31C118.227 111.455 117.077 111.127 115.642 111.324C114.199 111.522 113.172 112.153 112.559 113.217C111.952 114.274 111.767 115.665 112.004 117.392C112.239 119.099 112.79 120.372 113.657 121.212ZM117.421 124.421C115.179 124.729 113.315 124.295 111.829 123.12C110.348 121.936 109.444 120.149 109.115 117.758C108.785 115.354 109.177 113.389 110.292 111.863C111.407 110.336 113.086 109.419 115.327 109.111C117.569 108.803 119.429 109.237 120.909 110.414C122.388 111.584 123.292 113.371 123.623 115.775C123.949 118.152 123.556 120.11 122.443 121.65C121.33 123.19 119.656 124.114 117.421 124.421ZM129.846 122.496L128.103 109.818L123.766 110.415L123.463 108.21L134.881 106.641L135.184 108.845L130.867 109.439L132.609 122.116L129.846 122.496ZM138.745 121.273L136.699 106.391L139.452 106.013L141.498 120.895L138.745 121.273ZM147.708 116.532C148.576 117.372 149.731 117.693 151.174 117.495C152.616 117.297 153.639 116.68 154.242 115.645C154.851 114.602 155.037 113.224 154.802 111.511C154.563 109.777 154.01 108.483 153.14 107.63C152.278 106.775 151.128 106.447 149.693 106.644C148.25 106.843 147.223 107.474 146.61 108.538C146.003 109.594 145.818 110.986 146.055 112.713C146.29 114.419 146.841 115.693 147.708 116.532ZM151.472 119.741C149.23 120.049 147.366 119.616 145.88 118.44C144.399 117.256 143.495 115.469 143.166 113.079C142.836 110.674 143.228 108.709 144.343 107.183C145.458 105.656 147.137 104.739 149.378 104.431C151.62 104.123 153.48 104.557 154.96 105.734C156.439 106.904 157.343 108.691 157.674 111.095C158 113.472 157.607 115.431 156.494 116.971C155.381 118.511 153.707 119.434 151.472 119.741ZM161.306 118.172L159.261 103.29L162.187 102.888C162.829 103.642 164.131 105.16 166.094 107.444C168.057 109.727 169.252 111.115 169.678 111.609C169.801 111.75 170.01 111.991 170.305 112.33C170.606 112.661 170.818 112.898 170.941 113.039C170.574 110.723 170.385 109.521 170.373 109.433L169.338 101.905L171.847 101.56L173.893 116.443L170.926 116.85L162.774 107.31L162.176 106.574C162.476 108.355 162.676 109.607 162.775 110.332L163.805 117.829L161.306 118.172ZM175.457 116.228L178.886 100.583L181.883 100.171L189.323 114.322L186.499 114.71L184.448 110.707L179.237 111.423L178.332 115.832L175.457 116.228ZM179.646 109.276L183.465 108.751C181.709 105.011 180.806 103.079 180.754 102.955L179.646 109.276ZM190.807 114.118L188.761 99.2359L191.514 98.8576L193.258 111.545L199.485 110.69L199.705 112.895L190.807 114.118ZM51.9274 157.43L49.8766 142.508L54.8339 141.826C56.0055 141.665 57.0287 141.68 57.9036 141.87C58.7775 142.054 59.5015 142.451 60.0754 143.062C60.656 143.672 61.0166 144.489 61.1572 145.511C61.2549 146.222 61.2505 146.868 61.144 147.449C61.0365 148.022 60.804 148.565 60.4465 149.076C60.0881 149.581 59.5429 150.008 58.8112 150.357C58.0862 150.705 57.1853 150.953 56.1085 151.101C55.1875 151.227 54.4354 151.303 53.8523 151.328L54.6397 157.058L51.9274 157.43ZM55.5403 149.15C56.1024 149.073 56.5825 148.952 56.9808 148.787C57.3857 148.621 57.6917 148.437 57.8987 148.236C58.1125 148.034 58.2699 147.799 58.3709 147.53C58.4787 147.26 58.537 147.007 58.546 146.771C58.5609 146.527 58.5483 146.26 58.5082 145.969C58.3956 145.149 58.0459 144.562 57.459 144.208C56.8721 143.854 56.0979 143.743 55.1362 143.875L52.8709 144.187L53.5871 149.398C53.6702 149.4 54.3213 149.318 55.5403 149.15ZM70.5141 154.876L68.4632 139.953L73.9792 139.195C74.731 139.092 75.3858 139.036 75.9436 139.029C76.5082 139.02 77.0503 139.073 77.5698 139.188C78.0952 139.295 78.5312 139.48 78.8778 139.743C79.2312 140.005 79.5299 140.371 79.7739 140.841C80.0238 141.304 80.1948 141.87 80.287 142.541C80.5587 144.518 79.8401 145.942 78.1311 146.812C78.5536 147.174 79.1125 147.877 79.8078 148.92L82.6534 153.208L79.6465 153.621L77.3747 149.969C76.5261 148.664 76.0062 147.894 75.8151 147.658C75.699 147.667 75.3159 147.716 74.6658 147.805L72.357 148.102L73.2366 154.502L70.5141 154.876ZM75.1235 145.714C76.18 145.569 76.9129 145.278 77.3222 144.842C77.7306 144.4 77.8776 143.762 77.7631 142.929C77.6626 142.198 77.3549 141.691 76.8402 141.41C76.3254 141.129 75.5872 141.054 74.6256 141.187L71.4663 141.621L72.0848 146.121C72.1863 146.107 72.6913 146.041 73.5998 145.923C74.5073 145.798 75.0152 145.729 75.1235 145.714ZM90.7464 152.095L88.7011 137.213L91.4541 136.835L93.4994 151.717L90.7464 152.095ZM109.24 149.771C107.067 150.07 105.249 149.623 103.788 148.43C102.327 147.236 101.43 145.435 101.099 143.024C100.784 140.735 101.196 138.808 102.333 137.244C103.477 135.672 105.125 134.739 107.279 134.443C109.019 134.203 110.548 134.404 111.864 135.044L111.287 137.245C110.031 136.693 108.817 136.498 107.645 136.659C106.277 136.847 105.262 137.49 104.599 138.589C103.941 139.68 103.727 141.055 103.955 142.714C104.191 144.434 104.756 145.712 105.651 146.548C106.553 147.384 107.714 147.704 109.137 147.508C110.383 147.337 111.576 146.855 112.716 146.064L113.378 148.167C112.333 149.001 110.954 149.535 109.24 149.771ZM121.875 147.817L119.83 132.935L128.851 131.695L129.039 133.895L122.883 134.741L123.411 138.581L129.262 137.776L129.562 139.96L123.711 140.765L124.327 145.245L130.706 144.368L130.916 146.575L121.875 147.817ZM150.942 143.822L148.897 128.94L157.704 127.73L157.903 129.928L151.93 130.749L152.511 134.975L158.189 134.194L158.487 136.358L152.808 137.138L153.675 143.447L150.942 143.822ZM171.006 137.556C171.874 138.396 173.029 138.717 174.471 138.519C175.914 138.32 176.936 137.704 177.539 136.669C178.148 135.626 178.335 134.248 178.099 132.534C177.861 130.801 177.307 129.507 176.438 128.654C175.575 127.799 174.426 127.471 172.99 127.668C171.548 127.866 170.52 128.497 169.907 129.561C169.3 130.618 169.116 132.009 169.353 133.736C169.588 135.443 170.139 136.716 171.006 137.556ZM174.77 140.765C172.528 141.073 170.664 140.639 169.178 139.463C167.697 138.28 166.792 136.493 166.464 134.102C166.133 131.698 166.526 129.733 167.641 128.207C168.756 126.68 170.434 125.763 172.676 125.455C174.917 125.147 176.778 125.581 178.258 126.758C179.736 127.928 180.641 129.715 180.971 132.119C181.298 134.496 180.905 136.454 179.792 137.994C178.678 139.534 177.004 140.458 174.77 140.765ZM190.462 138.391L188.411 123.468L193.927 122.71C194.679 122.607 195.334 122.551 195.892 122.544C196.456 122.535 196.998 122.588 197.518 122.703C198.043 122.81 198.479 122.995 198.826 123.258C199.179 123.52 199.478 123.886 199.722 124.356C199.972 124.819 200.143 125.385 200.235 126.056C200.507 128.033 199.788 129.457 198.079 130.327C198.502 130.689 199.061 131.392 199.756 132.435L202.602 136.723L199.595 137.136L197.323 133.484C196.474 132.179 195.954 131.409 195.763 131.173C195.647 131.182 195.264 131.231 194.614 131.32L192.305 131.617L193.185 138.017L190.462 138.391ZM195.072 129.229C196.128 129.084 196.861 128.793 197.27 128.357C197.679 127.915 197.826 127.277 197.711 126.444C197.611 125.713 197.303 125.206 196.788 124.925C196.274 124.644 195.535 124.57 194.574 124.702L191.414 125.136L192.033 129.636C192.135 129.622 192.64 129.556 193.548 129.438C194.455 129.314 194.963 129.244 195.072 129.229ZM56.9406 186.014L53.6292 161.919L67.8887 159.959L68.2102 163.518L58.5394 164.847L59.4797 171.689L68.6735 170.426L69.155 173.929L59.9611 175.192L61.3648 185.406L56.9406 186.014ZM75.2132 183.503L71.9017 159.408L76.3589 158.795L79.6703 182.89L75.2132 183.503ZM84.884 182.174L81.5635 158.013L90.4942 156.786C91.7113 156.618 92.7714 156.528 93.6746 156.516C94.5888 156.502 95.4664 156.588 96.3076 156.774C97.1581 156.948 97.864 157.247 98.4252 157.673C98.9974 158.097 99.481 158.69 99.8761 159.451C100.281 160.2 100.558 161.117 100.707 162.202C101.147 165.404 99.9833 167.709 97.2163 169.117C97.9003 169.704 98.8052 170.843 99.931 172.531L104.538 179.472L99.6698 180.141L95.9917 174.229C94.6177 172.116 93.7759 170.869 93.4665 170.487C93.2786 170.502 92.6583 170.581 91.6057 170.726L87.8678 171.206L89.2918 181.568L84.884 182.174ZM92.3469 167.34C94.0574 167.105 95.244 166.634 95.9067 165.929C96.5679 165.212 96.8058 164.18 96.6205 162.831C96.4577 161.647 95.9596 160.827 95.1262 160.372C94.2928 159.917 93.0976 159.796 91.5406 160.01L86.4256 160.713L87.427 167.999C87.5914 167.976 88.4091 167.87 89.8798 167.679C91.3491 167.477 92.1714 167.364 92.3469 167.34ZM114.731 178.407C111.825 178.806 109.129 178.495 106.643 177.474L107.243 173.789C108.352 174.217 109.533 174.524 110.788 174.709C112.053 174.893 113.261 174.905 114.412 174.747C115.827 174.553 116.855 174.104 117.495 173.402C118.135 172.688 118.376 171.761 118.219 170.621C118.011 169.108 116.859 168.199 114.761 167.896C114.613 167.871 114.197 167.811 113.513 167.715C112.828 167.608 112.183 167.507 111.578 167.411C110.982 167.303 110.551 167.217 110.285 167.153C106.894 166.458 104.985 164.553 104.557 161.439C104.257 159.257 104.798 157.467 106.182 156.071C107.576 154.673 109.556 153.797 112.122 153.445C115.027 153.045 117.615 153.298 119.884 154.204L118.983 157.646C116.701 156.977 114.64 156.768 112.798 157.022C111.471 157.204 110.5 157.578 109.885 158.142C109.279 158.695 109.029 159.517 109.135 160.608C109.318 161.946 110.102 162.727 111.484 162.95C111.761 163.012 112.437 163.137 113.513 163.325C114.589 163.512 115.287 163.634 115.608 163.69C117.911 164.111 119.608 164.794 120.699 165.739C121.8 166.682 122.483 168.113 122.747 170.032C123.062 172.324 122.493 174.201 121.04 175.663C119.586 177.114 117.483 178.028 114.731 178.407ZM132.153 175.677L129.332 155.151L122.309 156.117L121.818 152.548L140.305 150.007L140.795 153.576L133.805 154.537L136.626 175.062L132.153 175.677ZM157.742 172.144L154.986 152.095C154.846 152.215 154.177 152.631 152.979 153.343C151.791 154.042 151.117 154.425 150.959 154.492L150.507 151.202C150.753 151.046 151.53 150.52 152.837 149.625C154.143 148.72 154.86 148.208 154.989 148.089L158.607 147.592L161.903 171.572L157.742 172.144ZM171.937 166.305C172.632 166.723 173.417 166.872 174.295 166.752C175.172 166.631 175.883 166.277 176.427 165.688C176.983 165.098 177.359 164.337 177.555 163.405C177.76 162.46 177.865 161.474 177.869 160.446C177.871 159.406 177.787 158.267 177.617 157.028C176.8 151.085 174.868 148.323 171.82 148.742C168.793 149.158 167.664 152.319 168.43 158.224C168.602 159.474 168.829 160.599 169.112 161.599C169.395 162.599 169.763 163.532 170.217 164.396C170.67 165.25 171.243 165.886 171.937 166.305ZM178.178 169.033C177.207 169.614 176.07 169.993 174.765 170.173C173.46 170.352 172.257 170.294 171.155 169.999C170.051 169.692 169.108 169.207 168.324 168.544C167.539 167.87 166.843 167.033 166.236 166.033C165.64 165.031 165.162 163.952 164.802 162.795C164.453 161.636 164.186 160.382 164 159.034C163.812 157.663 163.734 156.367 163.768 155.144C163.799 153.911 163.972 152.731 164.286 151.604C164.599 150.466 165.044 149.473 165.619 148.623C166.206 147.771 166.985 147.055 167.955 146.475C168.924 145.884 170.056 145.499 171.349 145.321C172.643 145.144 173.836 145.209 174.929 145.517C176.02 145.814 176.958 146.299 177.743 146.973C178.527 147.636 179.217 148.474 179.815 149.487C180.421 150.487 180.906 151.571 181.267 152.739C181.629 153.907 181.904 155.177 182.092 156.547C182.277 157.896 182.353 159.176 182.318 160.387C182.295 161.597 182.132 162.77 181.83 163.906C181.527 165.032 181.087 166.019 180.511 166.869C179.935 167.719 179.157 168.441 178.178 169.033ZM193.253 163.376C193.947 163.794 194.733 163.943 195.61 163.822C196.487 163.702 197.198 163.347 197.743 162.758C198.298 162.168 198.674 161.407 198.87 160.475C199.075 159.531 199.18 158.545 199.184 157.516C199.186 156.477 199.102 155.338 198.932 154.099C198.115 148.156 196.183 145.394 193.135 145.813C190.109 146.229 188.979 149.389 189.746 155.294C189.918 156.544 190.145 157.669 190.427 158.669C190.71 159.67 191.078 160.602 191.532 161.467C191.985 162.321 192.558 162.957 193.253 163.376ZM199.493 166.104C198.522 166.684 197.385 167.064 196.08 167.243C194.775 167.423 193.572 167.365 192.47 167.069C191.367 166.763 190.423 166.278 189.639 165.615C188.854 164.941 188.158 164.104 187.551 163.103C186.955 162.102 186.478 161.022 186.117 159.865C185.768 158.707 185.501 157.453 185.316 156.104C185.127 154.734 185.05 153.437 185.083 152.215C185.114 150.982 185.287 149.802 185.602 148.675C185.915 147.537 186.359 146.543 186.935 145.693C187.522 144.842 188.3 144.126 189.271 143.546C190.239 142.954 191.371 142.57 192.665 142.392C193.958 142.214 195.152 142.279 196.244 142.587C197.335 142.884 198.273 143.37 199.058 144.044C199.842 144.707 200.533 145.545 201.13 146.558C201.737 147.558 202.221 148.642 202.582 149.81C202.944 150.978 203.219 152.247 203.407 153.618C203.593 154.967 203.668 156.246 203.633 157.458C203.61 158.668 203.447 159.841 203.145 160.977C202.842 162.102 202.402 163.09 201.826 163.94C201.251 164.79 200.473 165.511 199.493 166.104ZM66.2544 210.217C64.0253 210.524 62.2581 210.203 60.9528 209.254C59.6464 208.298 58.8544 206.81 58.5768 204.79L57.0801 193.9L60.2379 193.466L61.6979 204.089C61.8925 205.506 62.3209 206.499 62.983 207.071C63.6528 207.641 64.6456 207.836 65.9614 207.655C67.2539 207.478 68.1458 207.024 68.6369 206.294C69.127 205.556 69.2747 204.479 69.08 203.063L67.6217 192.452L70.7679 192.019L72.2677 202.932C72.5432 204.937 72.1693 206.577 71.146 207.853C70.1217 209.122 68.4911 209.91 66.2544 210.217ZM78.0497 208.348L75.7122 191.34L79.0558 190.88C79.7892 191.741 81.2776 193.477 83.521 196.086C85.7644 198.696 87.1299 200.282 87.6174 200.846C87.758 201.008 87.9968 201.283 88.334 201.671C88.6778 202.049 88.92 202.319 89.0605 202.482C88.6415 199.834 88.4251 198.46 88.4112 198.36L87.2289 189.757L90.0965 189.363L92.434 206.371L89.044 206.837L79.7266 195.934L79.0433 195.093C79.386 197.128 79.6143 198.559 79.7281 199.387L80.9056 207.955L78.0497 208.348ZM97.5989 205.661L95.2614 188.653L98.4076 188.221L100.745 205.229L97.5989 205.661ZM109.219 204.064L107.227 189.575L102.27 190.257L101.924 187.737L114.973 185.944L115.319 188.463L110.385 189.141L112.377 203.63L109.219 204.064ZM125.538 202.058C123.487 202.34 121.583 202.12 119.828 201.399L120.251 198.798C121.034 199.101 121.868 199.317 122.754 199.448C123.647 199.577 124.5 199.586 125.313 199.475C126.311 199.337 127.036 199.021 127.489 198.525C127.94 198.021 128.11 197.367 128 196.562C127.853 195.494 127.039 194.853 125.559 194.638C125.454 194.621 125.16 194.579 124.678 194.511C124.194 194.435 123.739 194.364 123.312 194.297C122.891 194.22 122.587 194.16 122.399 194.114C120.006 193.623 118.658 192.279 118.356 190.081C118.144 188.54 118.526 187.277 119.503 186.291C120.487 185.304 121.884 184.687 123.696 184.438C125.747 184.156 127.573 184.335 129.175 184.974L128.539 187.403C126.928 186.931 125.473 186.784 124.173 186.963C123.236 187.091 122.551 187.355 122.117 187.754C121.689 188.144 121.513 188.724 121.587 189.494C121.717 190.439 122.27 190.99 123.246 191.147C123.441 191.191 123.918 191.28 124.678 191.412C125.437 191.544 125.93 191.63 126.156 191.67C127.782 191.967 128.98 192.449 129.75 193.116C130.528 193.782 131.009 194.792 131.196 196.147C131.418 197.764 131.016 199.089 129.991 200.121C128.965 201.145 127.48 201.791 125.538 202.058ZM148.499 198.902C146.448 199.184 144.544 198.965 142.789 198.244L143.213 195.642C143.995 195.945 144.83 196.162 145.715 196.292C146.608 196.422 147.461 196.431 148.274 196.319C149.272 196.182 149.997 195.865 150.45 195.369C150.901 194.866 151.071 194.211 150.961 193.407C150.814 192.338 150 191.697 148.52 191.483C148.415 191.466 148.121 191.423 147.639 191.355C147.155 191.28 146.7 191.208 146.273 191.141C145.852 191.065 145.548 191.004 145.36 190.959C142.967 190.468 141.619 189.123 141.317 186.925C141.105 185.385 141.487 184.122 142.464 183.136C143.448 182.149 144.845 181.531 146.657 181.282C148.708 181 150.534 181.179 152.136 181.818L151.5 184.248C149.889 183.775 148.434 183.628 147.134 183.807C146.197 183.936 145.512 184.199 145.078 184.598C144.65 184.988 144.474 185.568 144.548 186.339C144.678 187.283 145.231 187.834 146.207 187.992C146.402 188.036 146.879 188.124 147.639 188.256C148.398 188.388 148.891 188.474 149.117 188.514C150.743 188.811 151.941 189.293 152.711 189.96C153.489 190.626 153.97 191.637 154.157 192.991C154.379 194.609 153.977 195.933 152.952 196.965C151.926 197.99 150.441 198.635 148.499 198.902ZM162.274 192.763C163.265 193.722 164.585 194.089 166.234 193.863C167.883 193.636 169.051 192.931 169.74 191.748C170.436 190.556 170.65 188.982 170.38 187.023C170.108 185.042 169.475 183.564 168.482 182.588C167.496 181.612 166.182 181.236 164.542 181.462C162.893 181.688 161.719 182.41 161.018 183.626C160.325 184.833 160.113 186.423 160.385 188.397C160.653 190.348 161.282 191.803 162.274 192.763ZM166.575 196.43C164.013 196.782 161.883 196.286 160.184 194.942C158.492 193.59 157.458 191.548 157.083 188.815C156.705 186.068 157.153 183.822 158.428 182.077C159.702 180.333 161.62 179.285 164.182 178.933C166.744 178.58 168.87 179.077 170.561 180.422C172.251 181.759 173.285 183.801 173.663 186.549C174.036 189.265 173.587 191.504 172.314 193.263C171.042 195.023 169.129 196.079 166.575 196.43ZM179.241 194.441L176.904 177.433L180.05 177L182.043 191.501L189.159 190.523L189.411 193.043L179.241 194.441ZM195.925 189.581L198.177 189.271C200.12 189.004 201.528 188.294 202.403 187.141C203.276 185.98 203.579 184.424 203.311 182.474C203.024 180.384 202.293 178.939 201.118 178.138C199.943 177.33 198.302 177.07 196.197 177.36L194.281 177.623L195.925 189.581ZM193.125 192.533L190.787 175.525L195.71 174.848C197.196 174.644 198.55 174.631 199.774 174.81C200.997 174.989 202.078 175.365 203.016 175.938C203.961 176.502 204.732 177.295 205.33 178.317C205.935 179.33 206.334 180.544 206.529 181.961C206.906 184.708 206.369 186.939 204.917 188.653C203.464 190.359 201.271 191.413 198.337 191.816L193.125 192.533ZM213.739 183.052L211.189 182.054L213.51 178.115L209.417 177.767L209.83 175.261L213.954 176.268L212.956 172.016L215.603 171.653L215.789 176.016L219.542 173.974L220.582 176.291L216.703 177.676C216.749 177.725 217.289 178.238 218.322 179.216C219.363 180.193 219.934 180.733 220.036 180.838C219.993 180.875 219.633 181.149 218.954 181.661C218.283 182.171 217.922 182.445 217.872 182.484L215.244 179.024L213.739 183.052Z" fill="white"/>
</svg>
